<svg version="1" xmlns="http://www.w3.org/2000/svg" width="810.667" height="810.667" viewBox="0 0 608.000000 608.000000"><path d="M291 25.6c-12.4.9-28.1 3.6-37.5 6.3-23.5 6.8-32.7 12.2-51 30.1-7.8 7.6-21.6 25.4-22.9 29.8-.4 1.2-1.1 2.2-1.6 2.2s-1.4 1.5-1.9 3.2l-3.1 9.3c-4.7 13-6.3 23.2-6.6 41-.1 9.3.1 19.4.5 22.4l.8 5.4-4.2 1.8c-7.8 3.5-13.5 11.7-15.9 22.9-.5 2.4-.8 2.5-6.1 2.2-7.1-.5-10.2.3-11.5 2.9-2 3.6.3 4.9 8.9 4.9h7.6l-.3 6.8c-.4 8.7 1.9 18.8 6.5 28 2.9 5.8 5.5 9.1 12.4 15.5l8.6 8.2.8 10c.9 11.4 1 18.3.6 24-.7 7.6 1.1 36 2.3 38 .7 1.1 1.3 4 1.5 6.5.1 2.5 1 5.4 2 6.5.9 1.1 1.8 3.6 2 5.5.4 4.3 2.7 9 4.5 9 .9 0 1.5 2 1.9 5.9.8 7.3 2.5 11.1 4.9 11.1 1.3 0 1.8.7 1.8 2.5 0 3.7 3 10.4 4.9 11 1 .3 2.4 3 3.6 6.7 1.9 5.8 2.3 6.3 5.2 6.6 2.9.3 4.2 2 4.3 5.8 0 2-8.3 9.4-11.9 10.5-2 .6-6.3 2.2-9.7 3.5-14.3 5.5-49.9 13.5-74.9 16.8-12.7 1.7-20.5 4.6-27.2 10.2-6.4 5.2-2.3 11 4.2 6 8-6.1 15.4-8.5 29-9.2 5.5-.3 12.9-1.5 16.5-2.6 3.6-1 8.1-2.1 10-2.4 8.9-1.1 36.9-8.2 40.9-10.4 2.7-1.4 3.6-1.3 2.2.4-1 1.2-3.5 13.6-5.7 29.1-1.1 7.2-.7 26.5.5 29.8.8 2.1 1.7 2.7 4.1 2.7 2.4 0 3.5-.8 5.7-4.2 4-6.3 12.3-16.8 13.3-16.8 1.3 0 8.4 22.1 7.3 22.9-.9.6-4.3 7.3-4.3 8.5 0 .3-1.3 2.8-3 5.6-1.6 2.7-2.7 5-2.4 5 .4 0 .2.6-.4 1.2-.6.7-1.3 2.9-1.7 4.9-.6 3.5-.5 3.7 8.6 12 13.1 12 19.2 18.6 27.4 29.7 7.5 10.1 18.1 26.6 21.6 33.3 1.8 3.6 2.3 3.9 5.9 3.9h4l-2.1-4.2c-3.8-7.7-17.2-28.7-24.3-38.1-8.6-11.5-12.7-16-24.3-26.7-5.1-4.6-9.3-8.8-9.3-9.2 0-.4 2.7-6.3 6-13.1 3.3-6.9 6-13.4 6-14.5 0-4.9-9.6-30.5-16.2-43.2-3.8-7.4-7.6-14.1-8.4-14.9-1.1-1.3.1-2.8 8.4-10.8 5.3-5.1 9.7-9.3 9.8-9.3.1 0 .7 1.4 1.4 3 1.6 3.9 4.4 5.5 6.3 3.6.7-.8 2.4-1.2 3.8-.9 4.8 1 7.4 7.8 11.5 29.8 4.7 24.9 9.2 44.8 15.5 68.5 1.7 6.3 3.2 12.2 3.4 13 .2.8 1.5 5.8 2.9 11 1.4 5.3 2.7 10.7 3 12 1.3 6.3 6.6 26.1 8.6 32 3.8 11.3 4.4 12 9.6 12 2.7 0 4.6-.5 4.8-1.3.2-.6 4-12.2 8.4-25.7 4.5-13.5 9.8-31.5 11.8-40 3.4-14.5 3.9-15.8 7.8-20 7.9-8.8 15.1-18.1 19.4-25.1 3.7-6 4.4-8 4.6-13.2.5-9.5 2.4-17.2 4.9-19.5 3.8-3.5 14-8.1 20.2-9 7-1.1 8.1-.8 8.9 2.3.8 3.3.8 34.4 0 47.6-.8 12.5-.1 14 4.9 11.1 5.3-3.1 17.8-25.3 20.9-37.2 4.1-15.7 4.7-20.6 4.5-39.8-.1-10.5.1-19.2.4-19.2.4 0 6.2 2.6 13 5.8 6.8 3.3 15.6 7.1 19.4 8.5 7.5 2.8 29.8 10.4 32.8 11.2 1 .2 3.9 2.2 6.5 4.3 11.3 9.4 29.5 20.6 53.4 32.7 5.4 2.8 9.8 5.2 9.8 5.6 0 .3-1.9 1.5-4.2 2.6-10.8 5.4-19.1 13.3-17.3 16.3 1.2 2 4.6.9 10.5-3.4 3.3-2.4 8.9-6.1 12.6-8.1l6.6-3.7 4.2 3c10.8 7.7 23.1 29.5 29.6 52.2 6.1 21.4 8.7 34.3 9.6 47.5.4 5.5.8 10.7 1 11.5.1.8.3 1.8.3 2.2.1.5 1.7.8 3.6.8h3.5v-8.3c0-20.3-10.4-61.7-20.5-81.7-11.1-22.1-18.6-29.3-42.4-41.1-27.9-13.9-43-23.1-56.6-34.4-4.1-3.4-7.5-5-18.5-8.5-18.3-5.8-44.5-16.5-57.7-23.5-.2-.1-1.3-6.4-2.5-14-1.7-10.9-2.6-14.3-4.4-16.2-2-2.2-2.1-3-1.8-16.1.3-10 .9-15.3 2.3-19.7 1.1-3.3 2.5-8.1 3.1-10.7.9-3.6 1.7-4.8 3.4-5 2.4-.3 4.3-5.6 7.1-20.1 1.3-6.4 2.2-8.7 3.3-8.7.8 0 3.4-1.1 5.8-2.5 5.2-3 8.6-9.5 10.9-20.5 1.8-8.8 3.8-12 13.3-21.7 3.9-4 8.2-8.7 9.5-10.5 4.7-6.4 5.7-18.8 2.6-34.6-1.2-6.2-5-10.6-9.9-11.7-3.2-.7-3.2-.8-2.5-4.9.3-2.2.8-5.7 1.1-7.6.2-1.9.9-7.6 1.5-12.7 1-8.3.8-26.7-.5-34.8-1.4-8.9-4.2-18.8-7.2-25-3.6-7.5-15-25.8-16.5-26.3-.5-.2-.9-.8-.9-1.4 0-1.6-10-13.6-17.1-20.5-23-22.2-44.9-34.3-68.8-37.8-11.4-1.6-36.6-2.6-47.1-1.9zm45.6 9.3c2.2.6 5.2 1.1 6.8 1.1 2.9 0 13 3.3 21.4 7.1 14.8 6.6 36.9 25 49.1 40.9 5.6 7.3 14.6 21.2 20.3 31.6 5.1 9.3 7.2 22.2 7.2 43.9-.1 11.8-.7 22.8-1.6 29-.9 5.5-1.4 10.3-1.2 10.7.2.3-4.2 2-9.9 3.8-5.6 1.7-12.8 4-15.9 5.1-3.1 1.1-6.9 1.8-8.4 1.6-2.4-.3-2.9-1.1-4.4-6.5-.9-3.3-2.9-7.7-4.4-9.7l-2.7-3.5h2.5c1.9 0 2.7-.7 3.2-2.6.4-1.4.9-2.2 1.3-1.6 1.1 1.7 3.6 1.9 5.3.5 1.3-1.2 1.5-2 .7-4.1-1.7-4.4-6.1-8.4-8.5-7.8-1.3.4-2.7 0-3.4-.9-.7-.9-2.1-1.3-3.1-1-1.2.4-3.6-.9-7.3-3.9-6.6-5.3-8.3-5.5-29.1-2.4-21.7 3.1-23.3 3.4-35 6.2-6 1.4-16.4 3.5-23 4.7-15.6 2.6-19.3 3.8-20.1 6.1-.6 2.1 2 5.8 4.3 5.8 1.5 0 1.7 1.6.3 2.5-.6.4-.8.9-.6 1.3.2.4-.1 1.4-.7 2.2-1 1.2-3.8 1.5-13.5 1.5-7.4 0-12.2-.4-12.2-1s-.7-2.2-1.4-3.7c-1.4-2.6-1.3-2.9.5-3.8 2.2-1.2 2.5-4.3.7-5.7-.7-.6-3.5-1.6-6.3-2.3-2.7-.7-10.2-2.8-16.5-4.6-23.1-6.6-45.6-11.8-47.6-10.9-1 .4-3.6.8-5.6.9l-3.8.1-.2-9c-.4-23.9 3.3-44.1 10.9-58.8 9.9-19.1 32.2-42.2 48.8-50.5C243 42.4 260.6 37 271 35.6c2.5-.3 5.9-.8 7.5-1 1.7-.3 7.7-.8 13.5-1.1 5.8-.4 10.6-.8 10.7-.9.6-.5 30.9 1.5 33.9 2.3zM205.5 181.4c17.1.7 33.3 5.1 37.4 10 2.7 3.3 4.3 13 3.8 23.4-.7 12.1-1.4 14.5-7.9 27.9-5.8 11.8-11.8 18.5-19.9 22.5-10.9 5.3-21.1 5.8-31.8 1.7l-5.7-2.2-1.2-11.6c-1.8-17.1-3.5-45.9-3.6-59.6l-.1-12 4-.5c2.2-.3 6.3-.4 9-.3 2.8.1 10 .4 16 .7zM366 184c3 .7 8.9 2.9 13 4.9 8.3 4 12.4 8.6 13.6 15.3.6 3.7.6 3.8-2.5 3.8-4 0-6.3 3.6-3.5 5.7 1 .7 2.8 1.3 4.1 1.3 3.4 0 3.8 2.2 1.8 9.8-3.2 12.3-8.1 20.8-17.5 30.2-13.3 13.4-24.1 17.7-41.5 16.7-26.2-1.6-46.1-17.8-49.6-40.6-2-13.2 1.1-34.4 5.7-38.6 2.7-2.5 10.5-6.5 13.6-7 2.2-.3 4.5-.6 15.8-2 17.6-2.2 35.8-2 47 .5zm-198 2c0 1.1-.8 2.3-1.7 2.7-8 2.8-10.6 15.2-6.4 30.3 1.2 4.1 4.3 12.2 7.1 18 3.1 6.7 5.1 12.5 5.5 16l.7 5.5-5.7-6c-11.3-12-15-25.6-12.5-46.6 1.2-11.2 2.8-14.9 8.1-19.4 3.7-3 4.9-3.2 4.9-.5zm1.4 19.5c.3 4.9.9 11.7 1.2 15 .4 4.2.2 5.5-.5 4.4-1.5-2.3-5.1-15.9-5.1-19.2 0-2.8 2.7-10.4 3.4-9.6.2.2.7 4.4 1 9.4zm106.7 12.1c-.3 13.2-.2 14.7 2.4 22.8 1.5 4.7 3.1 8.6 3.6 8.6.4 0 1 .9 1.4 1.9 1.2 3.9 15.3 16.8 22.4 20.5 13.6 7.1 30.4 9.7 44.1 6.6 11.9-2.7 19.3-7.1 31.1-18.9 9-9 15.7-21.4 18.6-34.1l1.8-8h3.7c2 0 7.7-1.4 12.6-3 11.1-3.7 11.4-3.7 10.2-.4-2.7 7 .7 9.3 5.4 3.7 7.6-9 10.3-11.3 13.4-11.3 2.9 0 4.2 1.4 4.2 4.6 0 .9-.4 1.2-1 .9-.5-.3-2-.1-3.2.6-3.6 1.9-19.8 19.2-20.5 21.8-.3 1.3-.1 3.8.6 5.6 2 5.7 1.4 7.8-3.9 13-9 8.8-4.4 13.3 4.9 4.9 8-7.2 9.8-12.2 6.5-18.5-1.8-3.6-2-3.4 9.5-14.9 6.6-6.5 7.5-7.2 8.2-5.5 1.2 3.1.9 15.6-.4 19.2-.7 1.8-5 7.2-9.8 12.1-4.7 4.8-9.4 10.2-10.5 11.8-2.5 3.6-5 10.5-5.9 16.3-.4 2.4-1.3 5.8-2 7.5-1.4 3.4-5.2 7.3-6.1 6.3-.3-.3.1-4.5.9-9.4 1.4-7.8 1.4-9.1.1-11.1-1-1.5-1.4-3.7-1-6 .7-5.8-4-9.7-6.4-5.3-.5 1.1-1 3.2-1 4.8 0 4.4-1.1 7.3-2.6 7.3-.8 0-1.7.7-2 1.5-.4.8-1 1.2-1.5.9-2-1.2-3.9 1.9-3.9 6.2 0 3.3-.5 4.6-2 5.4-1.2.6-2 2.1-2 3.6 0 1.8-.4 2.5-1.4 2.1-2.4-1-4.9 1.7-4.4 4.6.4 1.8.1 2.7-.8 2.7-2 0-3.7 3.8-3.2 7.1.4 2.5.2 2.8-1.8 2.3-2.7-.7-3.2.1-3.5 5.4-.3 4.1-1.1 5.2-2.4 3.2-1.1-1.8-4.3-1.1-5 1.1-.6 1.7-.9 1.8-2.2.7-1.3-1-1.8-.9-3.3 1-1 1.2-2.5 2.2-3.4 2.2-2 0-3.6 3.1-3.6 6.9 0 2.4-.4 3.1-2 3.1-1 0-2.4.9-3 2-.6 1.1-1.5 1.8-2.1 1.5-1.5-1-4.9.5-4.9 2.1 0 .8-.5 1.2-1 .9-.6-.3-2.2.3-3.6 1.4-3.7 2.9-5.1 2.6-5.9-1.2-.4-1.7-1.6-4.7-2.6-6.5-1-1.8-1.9-4.1-1.9-5.1 0-4.2-19.4-31.5-23.2-32.7-1.3-.3-3.8-2-5.6-3.5-3.5-3.1-6.9-3.8-7.8-1.6-.3.8-1 1.4-1.7 1.5-.7.1-2.7.4-4.6.6-1.8.2-3.8.9-4.4 1.5-.6.6-2.2 1.1-3.5 1.1-2.2 0-2.4.4-2 3.4l.4 3.4-2.3-2.4c-2.4-2.7-5.1-3.1-5.9-1-.4 1-1.8 1.2-5 .8-3.6-.4-4.4-.2-4.4 1.2 0 1.9-1.1 2.1-2.7.5-.8-.8-1.7-.5-3.2 1-1.2 1.2-2.1 1.7-2.1 1.2 0-1.6-4-2.3-5.5-1.1-.9.7-1.5.8-1.5.3 0-.6-2.1-1.8-4.7-2.8-2.7-1-5.3-2.2-5.9-2.7-.6-.4-2.7-.8-4.5-.7-1.9 0-4.9-.3-6.7-.7-3-.6-3.8-.2-7.3 3.2-4.6 4.5-11.9 15.3-11.9 17.6 0 .8-1.3 3.9-2.9 6.9-1.6 3-2.9 5.7-3 6.1-.8 3.5-2.5 6.7-3.2 6.2-.5-.3-.9-2.5-.9-4.8 0-4.6-1.9-7.2-4.4-6.3-.9.4-1.4 0-1.4-1.1.1-3-2.2-7.4-4.1-7.9-1.4-.3-2.3-1.9-3-5.1-1.2-5.7-3.5-35.1-2.8-35.8.3-.3 3.3.4 6.8 1.6 17.3 5.7 39.4-2.7 50.7-19.2 4.1-6.1 10.9-20.8 12.7-27.6.8-3.2 1.6-10 1.7-15 .1-7.3.4-9.2 1.7-9.6.9-.2 5.9-.4 11.1-.3l9.5.2-.4 14.1zm-35 93c-.6 2.8-.9 3.2-1 1.4-.1-3 1.1-7.9 1.6-6.4.2.6-.1 2.8-.6 5zm17.8 1.2c1.3 4.7 1.2 5.5-.5 4.4-.6-.4-1.4-2.9-1.6-5.5-.7-5.6.3-5.1 2.1 1.1zm-9 4.5c.1 1.6-.3 2.6-.9 2.2-.5-.3-1-2.7-.9-5.3.1-3.8.2-4.2.9-2.2.4 1.4.8 3.8.9 5.3zm52 1.9c.1.5-.6.8-1.4.8-.8 0-1.5-.5-1.5-1.2 0-.6-.8-2.1-1.7-3.2-1.4-1.5-1.1-1.4 1.4.4 1.8 1.4 3.2 2.8 3.2 3.2zm-24 5.9c-1.6 1-1.5 1.2-2.2-3.6l-.6-3.9 2 3.3c1.6 2.7 1.8 3.6.8 4.2zm38.3-1.4c1.1 2.5 2.5 5.1 3 5.7.5.6 2.6 4.6 4.7 8.9 3.7 7.6 3.7 7.8 1.9 9.9-1 1.2-1.8 2.5-1.8 3 0 .4-.6.8-1.4.8-2.5 0-6.8 4.9-6.1 7 .7 2.2-.5 2.6-2.3.8-2-2-4.4 1.1-4 5.3.3 3.1.1 3.6-1 2.6-1.1-.9-1.7-.7-2.7.6-1.5 2-2.5 2.2-2.5.4 0-1.7-3.8-5.3-4.6-4.4-.4.4-1.4-.8-2.3-2.6-1.1-2.2-2.3-3.2-3.9-3.2-1.8 0-2.8-1.1-4.2-4.3-1.1-2.3-2.6-4.5-3.5-4.8-1.1-.5-1.3-1-.5-1.9 1.2-1.4.4-4.1-1.4-4.8-.7-.3-4.8.3-9.2 1.3-4.3 1-11.2 2.2-15.3 2.6-6 .5-7.5 1-7.8 2.5-.7 2.5-2 2.4-2.8-.1-1-3.1-3.7-2.4-7.8 2-2.1 2.3-4.1 3.8-4.6 3.5-1.5-.8-4.1 2.4-4.1 5 0 4.1-1 5.7-2.7 4.3-1.1-.9-1.9-.9-3.3 0s-2.1.8-3-.3c-1.7-2-3.7-1.9-4.9.2-1 1.8-1.2 1.6-1.6-2.4-.3-3.3-2.5-5.4-4.6-4.8-2.3.8-2.7-2.6-.5-4.4.8-.7 1.7-2.8 2-4.9 1.7-9.6 6.1-18.8 7.3-15.5.3.7 1.5 1.3 2.8 1.3 1.3 0 2.5-.6 2.8-1.3.3-.9.7-.9 2 .1 1.2 1 2.1 1.1 3.6.2 1.4-.7 2.1-.7 2.1 0 0 .5-.4 1-1 1-1.8 0-3.2 4-1.9 5.6.9 1.1 2.7 1.3 7.8.9 3.6-.3 7.5-.8 8.6-1 1.9-.4 6.7-1.2 12.5-2 6.8-.9 28.6-5.8 37.5-8.4 7.5-2.1 10.3-2.6 11.6-1.8 2.6 1.6 5.2-.9 4.5-4.5-.8-4.2.2-3.4 2.6 1.9zM293 320c0 .5-.5 1-1.1 1-.5 0-.7-.5-.4-1 .3-.6.8-1 1.1-1 .2 0 .4.4.4 1zm-39.6 5.2c.4 2.4.3 3.8-.4 3.8-.5 0-1-1.9-1-4.2 0-4.9.5-4.7 1.4.4zm9.2 2.6c-1 .9-1.5-.2-2.1-3.9l-.5-3.4 1.5 3.4c.9 1.8 1.4 3.6 1.1 3.9zm7.4-3.3c0 .8-.4 1.5-1 1.5-.5 0-.7-.7-.4-1.5.4-.8.8-1.5 1-1.5.2 0 .4.7.4 1.5zm55.4 0c.3.8.1 1.5-.4 1.5-.6 0-1-.7-1-1.5s.2-1.5.4-1.5.6.7 1 1.5zM262.3 355c-.3 1.1-.7 2-.9 2-.2 0-.4-.9-.4-2s.4-2 .9-2 .7.9.4 2zm127.4 15.5c-.4 11.1-1 16.5-2.2 19.2-3 7-9 18.3-9.6 18.3-.4 0-1.2 1.3-1.9 3-.7 1.6-1.7 3-2.2 3-.5 0-.7.4-.4.9.3.4-.3 1.6-1.4 2.6-1.1 1-2 2.4-2 3.1 0 .7-.8 1.9-1.8 2.6-1.1.7-2.4 2.3-3.1 3.6-1.9 3.6-17 23.3-21.6 28.2-2.4 2.5-4.6 5.8-4.9 7.5-2.6 12-3.6 17.4-3.6 20.4 0 4.1-2.7 9.3-10.5 19.6-6.3 8.5-9 11.8-14.2 17.2-1.9 2-3.5 4.9-3.9 7.1-1.3 8-8.6 34.3-12.4 45.2-2.3 6.3-5 14.8-6.2 18.7-1.1 4-2.4 7.3-2.8 7.3-1.3 0-2.3-3.8-21.1-78-7.9-31-9.9-40.2-12.9-58-1.2-6.9-2.8-14.7-3.6-17.4-.7-2.7-1.1-5.2-.8-5.7.7-1.2 4.4-1.2 4.4 0 0 1.3 3 2.2 4.3 1.4.7-.4 2.2-.6 3.5-.4 1.3.1 2.5-.4 2.8-1.3.5-1.2 1-1.3 2.4-.4 2.3 1.5 5 .3 5.8-2.5.6-1.9.7-1.7 1.2 1.3.7 4.8 3.8 5.2 8.2 1.1 2.7-2.5 3.4-2.8 4.1-1.6 1.7 3 6.4 1 8-3.5.3-.9.6-.4.6 1.2.1 2.7 3 4.6 5.1 3.3 1.4-.9 4.9-8.8 8.6-20 3.3-9.9 3.9-8.3.9 2.8-2.2 8.5-2.1 9.7 1.4 9.7 2.1 0 3.2-.6 3.6-2.1.5-1.5 1-1.8 1.5-.9.4.6 1.8 1 3.1.8 2.8-.4 6.1-6.4 8-14.6.7-2.8 1.6-5.2 2.1-5.2 1 0 .6 3.4-1 7.3-1.6 3.7-1.5 7.4.1 8 3.1 1 5.3-1 7.1-6.6.4-1.2 1.2-1.6 2.4-1.3 2.1.7 4.6-1.6 5.7-5.3.7-2.2.9-2.3 2-.8 2.4 3.3 5.3 2.1 7.6-3.3 1.6-3.8 2.5-4.8 3.4-4 2.9 2.4 5.2-.5 7.5-9.8 1-3.8 1.9-5.2 3.1-5.2 1.1 0 2.4-1.5 3.4-3.8 1.6-3.5 3.2-4.7 8.6-6.5.9-.3 1.9-2.2 2.3-4.1.6-3.2 1.1-3.6 3.6-3.6 3.4 0 5.5-3.2 6.6-9.9 1.3-7.9 1.6-4 1.1 11.4zm-69.3 0c.3.8.1 1.5-.4 1.5-.6 0-1-.7-1-1.5s.2-1.5.4-1.5.6.7 1 1.5zM315 375c0 1.1-.4 2-1 2-.5 0-1-.9-1-2s.5-2 1-2c.6 0 1 .9 1 2zm-15.3 3.2c-.3.8-.6.5-.6-.6-.1-1.1.2-1.7.5-1.3.3.3.4 1.2.1 1.9zm15.1 3.4c-.1 1.9-.6 3.8-1.2 4.1-.5.4-.7-.4-.3-1.8.4-1.3.7-3.2.7-4.2 0-.9.2-1.7.5-1.7s.5 1.6.3 3.6zm23.9-1.4c-.3.8-.6.5-.6-.6-.1-1.1.2-1.7.5-1.3.3.3.4 1.2.1 1.9zm-72 8c-.3.7-.5.2-.5-1.2s.2-1.9.5-1.3c.2.7.2 1.9 0 2.5zm-19 1c-.3.8-.6.5-.6-.6-.1-1.1.2-1.7.5-1.3.3.3.4 1.2.1 1.9zm-8 6.5c-.2 1.6-.4.5-.4-2.2 0-2.8.2-4 .4-2.8.2 1.3.2 3.5 0 5zm158.4 16.2c1.7 15.8 1.4 45-.5 54.1-2.4 11-4.6 17.8-7.9 24-5.2 9.9-5.2 9.8-5.3-12.8-.1-23.5-.5-27.2-3.6-29.1-3.1-1.9-13.2-2.2-18-.5-2.3.8-4.2 1.3-4.4 1.1-.2-.1 2.5-3.9 5.9-8.4 3.4-4.5 6.9-9.1 7.7-10.3.8-1.3 2-2.8 2.5-3.4 2.2-2.3 11.4-17.5 15.6-25.5l4.4-8.3 1.2 4.2c.7 2.4 1.8 9.1 2.4 14.9zm-150.4-14.7c-.3.8-.6.5-.6-.6-.1-1.1.2-1.7.5-1.3.3.3.4 1.2.1 1.9zm99.3-1.5c-.1 1.3-2.9 5.9-3 4.8 0-2.1 1.3-5.5 2.1-5.5.5 0 .9.3.9.7zm-29.8 16c-.3 1.6-.7 2.2-1 1.5-.4-1.3.4-4.2 1.1-4.2.2 0 .2 1.2-.1 2.7zm-54.5 10c0 4.2-.2 5.1-.7 3.3-1.1-3.4-1.2-10.2-.2-9.6.5.3.8 3.1.9 6.3zm53-4.5c-.3.8-.6.5-.6-.6-.1-1.1.2-1.7.5-1.3.3.3.4 1.2.1 1.9zm-111.9 45.6l5.1 9.7-4.7 5.2c-2.6 2.9-6 6.7-7.6 8.5l-2.8 3.3.5-11c.6-12 2.5-25.5 3.8-25.5.4 0 3 4.4 5.7 9.8z"/><path d="M207 188.6c-7 2.2-18.3 7.9-20.7 10.5-2.7 3-3.2 5.9-1.3 7.1 1.1.7 3.1-.1 7.5-3 3.3-2.2 7.1-4.3 8.3-4.7 2.1-.6 2.3-.4 1.8 1.3-1.1 3.3-1 8.6.2 10.8 1.8 3.4 8.8 7.6 13.6 8.1 8.9 1 16.7-4.4 18.1-12.7l.7-4.2 2.9 2.8c2.4 2.3 3.3 2.6 4.7 1.8 3.2-2.1 2.4-4.3-3.5-10.2-4-4-7.3-6.4-10.7-7.5-5.9-2-15.3-2-21.6-.1zm17.8 8.4c4.5 5.7 2.4 13.6-3.8 14-8.8.7-12.6-1.9-11.7-7.8 1.4-8.5 10.7-12.2 15.5-6.2z"/><path d="M215 199.5c-1.5 1.8-.5 6.4 1.5 7.2 2.9 1 6.2-.6 6.8-3.2.8-4.6-5.3-7.6-8.3-4zM320.3 189.1c-10.7 1.7-22.2 9.6-22.6 15.4-.3 4.9 3.2 4.5 8.5-.8 2.4-2.4 5.9-4.9 7.6-5.5l3.2-1.1v5c0 2.8.5 6 1.1 7.2 3 5.8 9.2 9.7 15.4 9.7 7.5 0 16.5-8 16.5-14.7v-3.5l4.8 2.8c2.6 1.5 6.5 4 8.6 5.5 4.5 3.3 8.1 3.7 9.1 1.1.9-2.3-4.6-7-14.4-12.3-15.5-8.3-25.6-10.7-37.8-8.8zm19.3 9.4c3.6 3.6 3 8.2-1.4 11.1-1.7 1.2-4 2.1-5 1.9-.9-.2-2.9-.6-4.3-.9-4.2-.9-6.1-6.9-3.7-12.1 1-2.2 1.7-2.5 6.5-2.5 4.4 0 5.8.5 7.9 2.5z"/><path d="M329.7 198.7c-1.1 1.1-.8 5.8.5 7.1 3.1 3.1 8.3-1 7.1-5.6-.4-1.7-1.3-2.2-3.7-2.2-1.8 0-3.6.3-3.9.7zM83 469.1c-.9 1.6-.8 2.8.3 5.2.9 1.8 3.2 6.8 5.2 11.2 2 4.4 4.9 10.7 6.5 14 1.5 3.3 4.2 10.3 6 15.5 3.5 10 4.3 11.2 6.9 10.2 2.4-.9 3-2.3 2.4-5.7-.7-3.9-7.8-21.1-14.2-34.8-2.8-5.9-5.1-11.1-5.1-11.6 0-1.5-4.1-6.1-5.5-6.1-.8 0-1.9.9-2.5 2.1zM72.6 477.7c-2 2-3.6 4-3.6 4.6 0 .6-.6 1.8-1.3 2.6-.7.9-2.4 4.1-3.7 7.1-1.3 3-3.4 7.9-4.7 10.9-1.4 2.9-2.6 6-2.8 7-.1.9-1 3.2-1.8 5.1-.8 1.9-2.2 5.1-3.1 7.2-.9 2-1.6 4.2-1.6 5 0 .8-.4 1.8-.9 2.4-1.8 1.8-13.2 42.2-17 59.9l-3.8 18 3.5.3c4 .4 4.7-.4 5.6-6.2 1.8-11.3 6.4-29.8 11.9-48.1 1.1-3.9 2.2-7.7 2.3-8.5.2-.8.7-2.3 1.2-3.5.6-1.1 2.2-5.6 3.7-10s3.3-9.4 4-11c.7-1.7 3.1-7.5 5.4-13 5-12.6 7.6-17.9 11.1-23 3.9-5.7 4.3-8.9 1.1-9.8-1.3-.3-3.1.7-5.5 3zM514.7 510.8c-1.5 1.6-9.3 20.2-13.6 32.2-6.2 17.4-8.5 24.3-11.9 35.5-4.5 14.6-6.8 22.7-7.8 26.7-.6 2.7-.5 2.8 3.4 2.8 3.8 0 4-.2 4.6-3.8 1.5-7.9 15.9-53.5 19.7-61.7 1.9-4.3 6.9-17 6.9-17.7 0-.4 1.2-3.3 2.7-6.4 2-4.2 2.4-6 1.6-7.3-1.5-2.3-3.7-2.5-5.6-.3zM105.9 537.7c-1.7 4.3-1.3 36.8.6 50.8 2.6 19.3 2.4 18.9 6.9 19.3l3.8.3-.7-3.8c-3-16-3.7-23.9-4.1-44.6-.1-12.5-.6-23.2-.9-23.7-1.3-2-4.5-1-5.6 1.7z"/></svg>