<?xml version="1.0" standalone="no"?>
<!DOCTYPE svg PUBLIC "-//W3C//DTD SVG 1.1//EN" "http://www.w3.org/Graphics/SVG/1.1/DTD/svg11.dtd">
<svg xmlns="http://www.w3.org/2000/svg"
   xmlns:xlink="http://www.w3.org/1999/xlink" version="1.1" viewBox="15 15 450 720">
   <path fill="currentColor" d="M356 259q6 3 8 6t2 4.5t1.5 3t6.5 1.5t14.5 -3t13.5 -3t5 1h1q9 2 16.5 8t9.5 7q9 -3 13 1q25 25 29 39q7 23 7 45q0 12 -2 30q-1 8 -5.5 12.5t-4.5 5.5q0 4 2.5 12.5t2.5 12.5v4q-2 9 -8.5 15t-6.5 8v8q0 6 1.5 15.5t1.5 14.5q0 3 -0.5 6.5t-0.5 4.5q-5 25 -18 58
t-18 52q-1 4 -1 5q0 11 17.5 26.5t17.5 25.5q0 6 -3 9q-6 10 -15.5 15.5t-17 7t-21.5 2.5t-19 2q-18 3 -42 3q-16 0 -52 -2q-5 0 -11.5 -0.5t-7.5 -0.5q-9 0 -23 0.5t-19 0.5q-40 0 -72 -11q-5 -2 -9 -4t-7 -5.5t-5.5 -6t-4.5 -8t-3 -7.5t-3 -8.5t-2 -7.5l-2 -8q0 -5 1.5 -9
t4 -8t3.5 -5q4 -9 11 -16t8 -12q0 -3 -12 -22q-9 -15 -22.5 -35.5t-23.5 -37t-19 -35.5q-7 -15 -7 -36v-16q0 -18 3 -46t3 -42q0 -33 -15 -80.5t-16 -73.5q-1 -14 -1 -37q0 -48 17 -91q6 -14 23 -14q8 0 20 4q13 5 21 32q6 21 10 71t6 62q1 6 3.5 33t6 45t9.5 18l15 -23
q9 -19 23 -88q1 -4 3 -19.5t3 -19.5q17 -56 45 -103q8 -14 24 -14q14 0 27 8q16 9 16 33q0 29 -14.5 77t-15.5 56q-2 12 -11 37q7 -3 18.5 -9t20.5 -9.5t17 -3.5q9 0 14 4q5 3 8.5 7.5t4.5 8t1.5 6.5t0.5 5v1zM321 693q18 0 43.5 -6t28.5 -7q2 -1 7 -1t11 0.5t7 0.5l10 -3
q-2 -2 -9.5 -5t-8.5 -3q-40 -23 -133 -23q-12 0 -38 2q-6 0 -17 0.5t-15.5 1t-11.5 1.5t-12.5 4t-11.5 7l-1 1q0 3 8.5 7.5t15.5 6.5q24 7 104 15q6 1 23 1zM395 323q0 -25 -14 -25q-8 0 -15 9t-7 18q0 2 0.5 5t0.5 4q0 12 -7 25t-7 17q1 7 7.5 13.5t13.5 6.5q3 0 6 -2.5
t5 -8t3 -9t3 -11t2 -8.5q2 -6 4 -13t3.5 -12t1.5 -9zM439 352q0 -6 -6 -12.5t-10 -6.5l-2 1q-5 5 -7 10t-3.5 12.5t-2.5 11.5q-2 6 -4.5 12t-4 9t-1.5 7v4l12 2q6 1 10 -0.5t5 -3t2 -7.5t2 -8q1 -5 4 -11.5t4.5 -11t1.5 -8.5zM288 89q0 -17 -16 -17q-19 0 -31 41
q-2 6 -3.5 13.5t-2.5 9.5q-2 5 -8.5 20.5t-8.5 28.5q-1 5 -2 14t-2 16.5t-1 8.5q-1 4 -4.5 16.5t-3.5 15.5q-2 11 -21.5 37t-20.5 35q-2 15 -13 19q-4 2 -4 -2q0 -7 -3 -20.5t-7 -24.5l-3 -10q-1 -9 -6.5 -21.5t-6.5 -15.5l-2 -13q-3 -17 -5.5 -46.5t-4.5 -42.5
q-7 -37 -19 -62q-2 -4 -11 -2q-14 3 -14 24q0 22 4 42q3 15 3 26t3 25q1 5 7 25.5t8.5 29.5t5 25.5t2.5 30.5q0 5 -1 10t0 8l1 15q1 8 1.5 29.5t2.5 34.5q1 5 5.5 11.5t5.5 11.5q1 7 1 12q0 6 -1 13t-1 9q0 10 3 16q6 15 13 27t18 26.5t17 23.5q2 3 7.5 9t8.5 11.5t3 13.5v7
q0 13 14 13q21 0 51 -3.5t47 -3.5h6q16 0 38.5 5t36.5 5q20 0 20 -39q0 -1 -0.5 -3.5t-1 -4t0.5 -4.5q3 -7 9 -12.5t7 -8.5q5 -10 14 -59q1 -5 3 -10.5t2 -8.5q0 -4 -3 -11.5t-3 -11.5q0 -5 1 -10l1 -5q0 -2 -2 -2l-7 5q-7 6 -12 6q-10 0 -19 -6.5t-14 -6.5q-3 0 -7 0.5
t-5 0.5q-12 0 -23 -18t-15 -19q-12 -6 -21 1q-26 20 -26 29q13 21 15 38q0 2 3 48q0 5 2 14t2 14v6q-1 14 -15 14q-17 0 -17 -30q0 -9 1 -21t1 -17q0 -9 -2 -17t-3.5 -11.5t-6 -11.5t-6.5 -11q-7 -15 -10 -20q-6 -6 -5 -8q1 -3 6 -8l6 -4q8 -12 16.5 -16t15.5 -10
q6 -5 14.5 -7.5t9.5 -3.5q5 -3 8.5 -7t6.5 -9t4 -7q1 -8 6.5 -23.5t5.5 -18.5q0 -4 -8 -14.5t-10 -10.5q-5 0 -9.5 3t-9.5 7t-9 6q-6 4 -14 7.5t-12 6.5q-9 6 -44 54q-24 34 -28 60q0 3 5 15t5 18q0 8 -7.5 9.5t-10.5 -2.5q-8 -7 -10 -21t-6 -20q-2 -2 -2 -9q0 -23 16 -44
q1 -1 11 -11.5t19 -21.5t16 -21q22 -33 27 -56l3 -13q3 -16 11 -45.5t10 -42.5q14 -32 14 -59z" />
</svg>
