<svg version="1.1" xmlns="http://www.w3.org/2000/svg" viewBox="7.48 7.48 112.72 79.57">
  <!-- svg-source:excalidraw -->
  
  <defs>
    <style class="style-fonts">
      @font-face {
        font-family: "Virgil";
        src: url("https://excalidraw.com/Virgil.woff2");
      }
      @font-face {
        font-family: "Cascadia";
        src: url("https://excalidraw.com/Cascadia.woff2");
      }
      @font-face {
        font-family: "Assistant";
        src: url("https://excalidraw.com/Assistant-Regular.woff2");
      }
    </style>
    
  </defs>
  <g stroke-linecap="round"><g transform="translate(26.69533613822682 20.431547659635356) rotate(90.3514860148652 37.18496352086299 26.91784502902067)" fill-rule="evenodd"><path d="M0 0 C0 0, 0 0, 0 0 M0 0 C0 0, 0 0, 0 0 M-0.26 6.4 C0.51 4.93, 2.31 3.72, 4.99 0.36 M-0.26 6.4 C1.21 4.58, 3.46 2.44, 4.99 0.36 M0.13 12.04 C3.92 10, 3.24 5.62, 10.63 -0.03 M0.13 12.04 C3.3 8.57, 5.05 5.57, 10.63 -0.03 M-0.13 18.44 C4.54 12.18, 12.62 5.61, 15.62 0.33 M-0.13 18.44 C5.13 12.08, 9.37 6.92, 15.62 0.33 M0.27 24.08 C4.2 19.34, 8.76 13.18, 21.26 -0.07 M0.27 24.08 C5.73 16.2, 13.14 9.19, 21.26 -0.07 M0 30.48 C8.92 23.44, 14.94 13.91, 26.25 0.29 M0 30.48 C10.14 18.16, 19.9 7.3, 26.25 0.29 M45.27 -21.6 C45.43 -21.88, 45.85 -22.33, 46.59 -23.1 M45.27 -21.6 C45.79 -22.26, 46.39 -22.77, 46.59 -23.1 M-0.26 36.88 C8.06 26.13, 19 15.73, 31.89 -0.1 M-0.26 36.88 C6.99 28.27, 15.25 18.11, 31.89 -0.1 M45.67 -15.95 C46.94 -16.77, 48.23 -18.42, 48.95 -19.73 M45.67 -15.95 C46.31 -16.47, 47.24 -17.28, 48.95 -19.73 M0.14 42.52 C14.55 28.8, 24.49 14.41, 36.88 0.26 M0.14 42.52 C8.53 34.2, 16.21 24.86, 36.88 0.26 M45.41 -9.55 C47.13 -11.96, 48.45 -12.24, 51.31 -16.35 M45.41 -9.55 C47.93 -12.66, 49.86 -15, 51.31 -16.35 M-0.12 48.92 C12.84 34.4, 23.37 20.56, 42.52 -0.14 M-0.12 48.92 C13.73 33.45, 26.05 17.05, 42.52 -0.14 M45.14 -3.16 C48.58 -6.16, 51.19 -8.45, 53.02 -12.21 M45.14 -3.16 C47.32 -5.97, 49.8 -9.18, 53.02 -12.21 M0.27 54.56 C15.34 36.92, 27.83 21.92, 55.38 -8.83 M0.27 54.56 C13.08 39.28, 25.94 25.95, 55.38 -8.83 M5.91 54.17 C18.78 41.42, 27.98 26.9, 57.09 -4.7 M5.91 54.17 C26.83 32.47, 45.75 9.16, 57.09 -4.7 M10.9 54.53 C29.58 36.39, 45.37 16.76, 59.45 -1.32 M10.9 54.53 C21.31 43.82, 31.09 31.41, 59.45 -1.32 M16.54 54.13 C31.47 34.14, 48.82 17.12, 61.16 2.81 M16.54 54.13 C28.01 41.02, 38.82 28.54, 61.16 2.81 M21.53 54.49 C29.58 42.1, 39.08 33.29, 63.52 6.19 M21.53 54.49 C36.31 38.01, 50.25 20.98, 63.52 6.19 M27.17 54.1 C37.25 43.22, 50.91 26.54, 65.23 10.32 M27.17 54.1 C36.81 44.4, 45.45 33.15, 65.23 10.32 M32.16 54.46 C43.45 40.51, 55.53 26.67, 67.59 13.7 M32.16 54.46 C44.32 40.89, 55.62 28.87, 67.59 13.7 M37.8 54.06 C44.87 47.05, 52.12 41.04, 69.3 17.84 M37.8 54.06 C47.55 42.31, 58.84 28.96, 69.3 17.84 M42.79 54.42 C51.24 46.87, 56.51 39.22, 71.66 21.22 M42.79 54.42 C51.47 46.04, 58.78 37.03, 71.66 21.22 M44.5 58.56 C54.42 47.42, 61.42 38.95, 73.36 25.35 M44.5 58.56 C55.64 45.17, 67.3 33.16, 73.36 25.35 M44.89 64.2 C53.38 54.94, 63.49 39.89, 69.82 35.52 M44.89 64.2 C51.85 56.63, 59.19 49.65, 69.82 35.52 M44.63 70.6 C50.58 62.74, 53.54 56.41, 60.38 52.48 M44.63 70.6 C50.67 64.7, 54.46 59.2, 60.38 52.48 M44.37 77 C46.78 74.3, 48.85 73.99, 51.59 68.69 M44.37 77 C46.19 74.25, 48.47 72.54, 51.59 68.69" stroke="#868e96" stroke-width="0.5" fill="none"/><path d="M0 0 C-0.06 10.77, 0.9 23.59, 0 53.84 M0 0 C-0.59 17.7, 0.8 37.74, 0 53.84 M0 53.84 C12.32 55.08, 21.54 54.92, 44.62 53.84 M0 53.84 C9.45 53.97, 20.15 52.75, 44.62 53.84 M44.62 53.84 C46.44 58.94, 45.34 65.01, 44.62 80.75 M44.62 53.84 C44.24 64.36, 44.55 73.24, 44.62 80.75 M44.62 80.75 C54.28 60.83, 65.18 39, 74.37 26.92 M44.62 80.75 C53.47 62.9, 62.37 46.94, 74.37 26.92 M74.37 26.92 C64.77 5.56, 53.13 -13.24, 44.62 -26.92 M74.37 26.92 C66.82 13.19, 58.4 -1.88, 44.62 -26.92 M44.62 -26.92 C43.96 -19.46, 43.54 -14.98, 44.62 0 M44.62 -26.92 C44.37 -17.43, 43.81 -8.21, 44.62 0 M44.62 0 C32.6 0.78, 18.27 0.19, 0 0 M44.62 0 C33.88 1.07, 20.82 -0.08, 0 0 M0 0 C0 0, 0 0, 0 0 M0 0 C0 0, 0 0, 0 0" stroke="#000000" stroke-width="1" fill="none"/></g></g><mask/></svg>